<?xml version="1.0" encoding="UTF-8"?>
<svg id="Livello_2" data-name="Livello 2" xmlns="http://www.w3.org/2000/svg" viewBox="0 0 1649.43 432.28">
  <defs>
    <style>
      .cls-1 {
        fill: #e50914;
        stroke-width: 0px;
      }
    </style>
  </defs>
  <g id="Netflix_Logo_RGB">
    <g>
      <path class="cls-1" d="M0,0h121.09c24.46,0,43.33,10.26,56.08,30.5,12.53,19.9,18.88,47.37,18.88,81.62,0,17.61-2.87,33.52-8.53,47.29-5.13,12.47-11.58,21.83-19.2,27.88,4.24,3.03,8.29,6.72,12.07,10.99,4.64,5.24,8.68,11.99,12.03,20.06,3.31,7.98,5.98,17.53,7.95,28.38,1.95,10.81,2.94,23.71,2.94,38.33,0,37.11-7.59,67.05-22.56,88.97-14.84,21.73-35.92,33.58-68.37,38.39L0,426.02V0ZM53.28,352.23l61.75-12.19c9.69-2.27,18.18-9.34,25.16-20.98,6.29-10.51,9.48-23.99,9.48-40.08,0-17.17-3.07-29.76-9.13-37.4-6.02-7.58-14.16-11.26-24.9-11.26h-62.37v121.92ZM114.55,141.12c18.99,0,28.22-12.08,28.22-36.93,0-13.17-2.45-22.76-7.27-28.49-4.73-5.6-12.76-8.44-23.85-8.44h-58.37v73.86h61.28Z"/>
      <path class="cls-1" d="M2.3,423.43V2.3h118.79c23.73,0,41.78,9.81,54.13,29.43,12.35,19.62,18.53,46.42,18.53,80.39,0,17.4-2.79,32.87-8.36,46.42-5.57,13.56-12.6,23.16-21.07,28.82,5.09,3.24,9.87,7.39,14.35,12.44,4.48,5.06,8.36,11.53,11.62,19.42,3.27,7.89,5.87,17.2,7.81,27.91,1.94,10.72,2.91,23.36,2.91,37.92,0,36.81-7.39,66.04-22.16,87.67-14.78,21.64-35.46,32.76-66.8,37.41l-109.75,13.3ZM50.98,64.96v78.46h63.57c20.34,0,30.52-13.08,30.52-39.23,0-13.8-2.61-23.79-7.81-29.97-5.21-6.17-13.75-9.26-25.61-9.26h-60.67ZM115.48,342.29c11.51-2.7,20.15-11.14,26.68-22.06,6.54-10.92,9.81-24.67,9.81-41.26,0-17.79-3.21-30.74-9.63-38.83-6.42-8.09-15.32-12.13-26.7-12.13H50.98v127.02l64.5-12.73Z"/>
      <path class="cls-1" d="M339.78,390.92c-37.98,0-67.55-16.87-87.88-50.14-20.11-32.9-30.31-80.79-30.31-142.32,0-30.53,2.58-58.37,7.68-82.75,5.12-24.48,12.78-45.52,22.79-62.54,10.07-17.13,22.55-30.41,37.09-39.47,14.6-9.09,31.63-13.7,50.62-13.7s35.71,4.61,50.43,13.69c14.68,9.07,27.1,22.46,36.94,39.78,9.77,17.23,17.31,38.44,22.41,63.06,5.1,24.55,7.68,52.66,7.68,83.56,0,62.62-10.08,110.51-29.96,142.34-20.1,32.17-49.54,48.49-87.5,48.49ZM339.78,71.62c-20.57,0-35.94,10.46-47,31.99-11.16,21.72-16.82,54.18-16.82,96.48s5.7,73.49,16.94,92.84c11.16,19.21,26.49,28.55,46.87,28.55,8.49,0,16.64-2.36,24.23-7.02,7.63-4.68,14.4-11.93,20.11-21.55,5.78-9.73,10.39-22.42,13.71-37.73,3.34-15.39,5.03-33.92,5.03-55.09,0-42.29-5.54-74.76-16.47-96.5-10.82-21.51-26.07-31.97-46.62-31.97Z"/>
      <path class="cls-1" d="M339.78,388.62c-37.3,0-65.94-16.35-85.92-49.04-19.98-32.69-29.97-79.73-29.97-141.12,0-30.51,2.54-57.94,7.63-82.28,5.09-24.33,12.59-44.95,22.52-61.84,9.93-16.89,22.04-29.78,36.33-38.69,14.29-8.9,30.75-13.35,49.41-13.35s34.81,4.45,49.22,13.35c14.41,8.91,26.46,21.89,36.15,38.96,9.68,17.08,17.07,37.87,22.16,62.39,5.09,24.52,7.63,52.22,7.63,83.09,0,62.48-9.87,109.52-29.61,141.12-19.74,31.6-48.26,47.4-85.55,47.4ZM339.78,323.78c8.96,0,17.44-2.45,25.43-7.36,7.99-4.9,14.95-12.34,20.89-22.34,5.93-9.99,10.59-22.79,13.99-38.41,3.39-15.61,5.09-34.14,5.09-55.58,0-42.86-5.57-75.37-16.71-97.53-11.14-22.15-27.37-33.24-48.68-33.24s-37.66,11.09-49.04,33.24c-11.39,22.16-17.07,54.68-17.07,97.53s5.75,74.2,17.26,93.99c11.5,19.8,27.79,29.7,48.86,29.7Z"/>
      <path class="cls-1" d="M599.17,378.93c-37.96,0-67.53-16.35-87.86-48.59-20.12-31.9-30.33-78.32-30.33-137.97,0-29.58,2.58-56.57,7.68-80.21,5.12-23.74,12.79-44.14,22.81-60.63,10.07-16.6,22.55-29.48,37.11-38.26,14.59-8.8,31.61-13.27,50.59-13.27s35.69,4.46,50.41,13.26c14.68,8.8,27.11,21.77,36.95,38.56,9.77,16.7,17.32,37.27,22.42,61.13,5.1,23.81,7.68,51.06,7.68,81,0,60.7-10.08,107.13-29.97,137.99-20.1,31.18-49.54,46.99-87.49,46.99ZM599.17,69.54c-20.58,0-35.96,10.14-47.01,30.98-11.15,21.03-16.81,52.47-16.81,93.43s5.7,71.17,16.93,89.89c11.15,18.61,26.49,27.66,46.89,27.66,8.5,0,16.66-2.29,24.25-6.81,7.63-4.53,14.39-11.56,20.1-20.87,5.77-9.41,10.38-21.7,13.7-36.52,3.34-14.9,5.03-32.85,5.03-53.35,0-40.96-5.54-72.4-16.45-93.45-10.82-20.84-26.07-30.96-46.64-30.96Z"/>
      <path class="cls-1" d="M599.17,376.63c-37.3,0-65.94-15.84-85.92-47.52-19.98-31.68-29.97-77.26-29.97-136.74,0-29.57,2.54-56.14,7.63-79.72,5.09-23.58,12.59-43.56,22.52-59.92,9.93-16.37,22.04-28.86,36.33-37.49,14.29-8.62,30.75-12.94,49.41-12.94s34.81,4.31,49.22,12.94c14.41,8.63,26.46,21.21,36.15,37.75,9.68,16.55,17.07,36.69,22.16,60.45,5.09,23.76,7.63,50.6,7.63,80.52,0,60.54-9.87,106.12-29.61,136.74-19.74,30.62-48.26,45.93-85.55,45.93ZM599.17,313.8c8.96,0,17.44-2.38,25.43-7.13,7.99-4.75,14.95-11.96,20.89-21.65,5.93-9.68,10.59-22.08,13.99-37.22,3.39-15.13,5.09-33.08,5.09-53.85,0-41.53-5.57-73.03-16.71-94.51-11.14-21.47-27.37-32.21-48.68-32.21s-37.66,10.74-49.04,32.21c-11.39,21.47-17.07,52.98-17.07,94.51s5.75,71.89,17.26,91.07c11.5,19.19,27.79,28.77,48.86,28.77Z"/>
      <polygon class="cls-1" points="743.27 373.24 743.27 0 798.36 0 798.36 302.71 917.88 302.71 917.88 373.24 743.27 373.24"/>
      <path class="cls-1" d="M745.57,370.94V2.3h50.5v302.71h119.52v65.93h-170.02Z"/>
      <polygon class="cls-1" points="941.26 374.29 941.26 0 1117.69 0 1117.69 67.81 996.35 67.81 996.35 145.48 1102.43 145.48 1102.43 213.83 996.35 213.83 996.35 375.4 941.26 374.29"/>
      <path class="cls-1" d="M994.05,211.53v161.52l-50.5-1.01V2.3h171.83v63.21h-121.34v82.28h106.08v63.75h-106.08Z"/>
      <polygon class="cls-1" points="1140.69 381.81 1140.69 0 1195.79 0 1195.79 311.54 1315.31 318.53 1315.31 392.06 1140.69 381.81"/>
      <path class="cls-1" d="M1142.99,379.64V2.3h50.5v311.41l119.52,6.99v68.92l-170.02-9.98Z"/>
      <polygon class="cls-1" points="1338.68 394.58 1338.68 0 1393.77 0 1393.77 399.53 1338.68 394.58"/>
      <path class="cls-1" d="M1340.98,392.47V2.3h50.5v394.72l-50.5-4.54Z"/>
      <polygon class="cls-1" points="1577.49 421.33 1525.47 281.24 1475.74 408.13 1414.68 400.95 1493.63 214.22 1419.12 0 1483.53 0 1525.53 112.88 1567.89 0 1631.21 0 1557.05 210.97 1649.43 432.28 1577.49 421.33"/>
      <path class="cls-1" d="M1579.18,419.26l-53.65-144.47-51.27,130.85-56.26-6.62,78.1-184.71L1422.35,2.3h59.58l43.59,117.15,43.96-117.15h58.49l-73.38,208.74,91.15,218.35-66.56-10.13Z"/>
    </g>
  </g>
</svg>